<svg version="1.2" xmlns="http://www.w3.org/2000/svg" viewBox="0 0 500 500" width="500" height="500">
	<title>extra_icon1-svg</title>
	<defs>
		<linearGradient id="g1" x1="47.5" y1="452" x2="451.5" y2="48" gradientUnits="userSpaceOnUse">
			<stop offset="0" stop-color="#5cd85a"/>
			<stop offset=".3" stop-color="#5cd85a"/>
			<stop offset=".7" stop-color="#5cd85a"/>
			<stop offset="1" stop-color="#5cd85a"/>
		</linearGradient>
	</defs>
	<style>
		.s0 { fill: url(#g1) } 
	</style>
	<path id="Path 0" fill-rule="evenodd" class="s0" d="m76 48c24.3 0 38.2 0.4 38.5 1 0.3 0.7 60.3 1 177 1 134.6 0 177.2 0.3 179.3 1.2 1.5 0.7 4.7 2.8 7.1 4.7 2.5 2 5.5 5.3 6.8 7.3 1.3 2.1 2.3 4.6 2.3 5.5 0 1 0.6 2.7 1.5 3.8 1.3 1.8 1.4 23.8 1.5 177.3 0 103.5-0.4 175.9-0.9 176.9-0.5 1-1.7 4-2.7 6.8-1 2.7-3.2 6.6-4.9 8.5-1.8 1.9-6.1 5-16 10h-216.3c-184.3 0-216.6-0.2-218.9-1.4-1.6-0.8-4.5-2.3-6.7-3.3-2.1-1-5.3-3.6-7-5.8-1.7-2.2-4.2-5.9-7.6-12.5v-358l3.4-5.8c1.9-3.1 4.5-6.7 5.8-7.9 1.2-1.2 4.5-3.3 7.2-4.7 2.7-1.4 6.5-2.6 8.3-2.6 1.8 0 3.5-0.5 3.8-1 0.4-0.6 14.3-1 38.5-1zm-25.8 44.8c0.2 6 0.7 8.5 1.8 9.2 0.8 0.5 10.8 1 22.3 1 11.8 0 21.6-0.4 22.7-1 1.8-0.9 2-2 2-10.3q0-9.2-1.2-10.5c-1-0.9-6.8-1.2-23-1.2-21.4 0-21.8 0-23.3 2.2-1.2 1.8-1.5 4.3-1.3 10.6zm78-3.1c-0.2 4.3 0.1 9 0.7 10.5l1.1 2.8c33.8 0 43.9-0.4 45-1 1.8-0.9 2-2 2-10 0-6.7-0.4-9.4-1.5-10.5-1.2-1.2-5.2-1.5-22.8-1.5-11.6 0-21.9 0.5-22.7 1-1.1 0.7-1.6 3.2-1.8 8.7zm78.7 1.7c0.1 5.7 0.5 7.5 2.1 9.3 2 2.2 2.5 2.3 23 2.3 12 0 21.9-0.4 23-1 1.8-0.9 2-2 2-10.3-0.1-7.5-0.4-9.4-1.8-10.4-1.2-0.9-7.9-1.2-22.9-1.3-20.6 0-21.3 0.1-23.3 2.2-1.7 1.8-2.1 3.4-2.1 9.2zm-173.1 185.5c0.1 115.2 0.4 144.9 1.4 145.9 1 1 43.7 1.2 214.1 1.2h212.7c2.8-4.2 3-21.8 3-147.5 0.1-135.9 0-143.1-1.7-144.7-1.7-1.6-14.5-1.8-214.3-1.8-164 0-212.9 0.3-214 1.2-1.2 1-1.4 22.9-1.2 145.7zm238.9-63.9c4.1 0 6.3 0.5 7.6 1.8 1 0.9 1.8 2.9 1.7 4.4 0 1.6-0.9 4.5-1.9 6.5-1.1 2.1-2.3 4.9-2.9 6.3-0.5 1.4-2.3 7-4.1 12.5-1.8 5.5-3.6 10.9-4.1 12-0.5 1.1-1.1 3.1-1.3 4.5-0.3 1.4-1.9 6.3-3.7 11-1.7 4.7-3.5 8.9-4.1 9.5-0.5 0.5-0.9 1.8-0.9 2.7 0 1-0.6 3.3-1.4 5-0.8 1.8-2 5.3-2.7 7.8-0.7 2.5-2.3 7.2-3.5 10.5-1.2 3.3-3.7 10.7-5.5 16.5-1.8 5.8-3.8 11.2-4.4 12-0.7 0.8-1.7 3.4-2.3 5.7-0.7 2.4-2.4 5.7-3.9 7.4-2.3 2.6-3.8 3.2-8.3 3.7-4.1 0.4-6.2 0.1-8.2-1.1-1.6-0.9-2.8-2.5-2.8-3.5 0-0.9 0.6-3.3 1.3-5.2 0.7-1.9 1.5-4 1.9-4.5 0.3-0.6 4.1-11.6 8.3-24.5 4.2-12.9 8.2-24.6 8.7-26 0.6-1.4 1.9-4.3 2.9-6.5 1-2.2 2.6-6.5 3.5-9.5 0.9-3 1.9-6.4 2.3-7.5 0.5-1.1 1.3-3.6 2-5.5 0.7-1.9 2.5-7.6 4.1-12.5 1.7-5 3.8-11.5 4.7-14.5 0.9-3 2.3-6.2 3-7 0.7-0.8 1.3-2.3 1.4-3.4 0-1 1.6-3.3 3.4-5.2 3-3.1 3.8-3.4 9.2-3.4zm-85.8 4c0.9 0 2.6 0.7 3.9 1.5 1.2 0.8 2.2 2.1 2.2 2.7 0 0.7 0.9 2.4 2 3.8 1.1 1.4 2 3.7 2 5.2 0 2.2-2.7 5.7-12.4 16-6.9 7.3-13.5 14.7-14.8 16.4-1.3 1.7-5.3 6-9 9.5-4 3.9-6.9 7.6-7.3 9.4-0.4 1.6-0.3 3.7 0.1 4.6 0.5 0.9 8.4 9.5 17.5 19 9.2 9.6 18.7 19.8 21.3 22.6q4.6 5.3 4.6 8c0 1.6-1.3 4.9-3 7.5-2 3.3-3.9 5-5.7 5.4-1.9 0.4-3.3 0-4.3-1-0.8-0.8-2.1-1.6-2.7-1.6-0.7 0-1.6-0.9-2-1.9-0.5-1.1-8.9-10.4-18.9-20.8-9.9-10.3-22.1-23.2-27.2-28.6-5.3-5.5-9.2-10.6-9.2-11.7 0-1.1 1.6-3.9 3.6-6.3 2-2.3 15.8-16.7 30.7-32 14.8-15.2 27.7-27.7 28.6-27.7zm124.6 0.1c1.1 0 4.2 2.3 7 5.2 2.8 2.9 16.2 16.8 29.8 30.9 23.2 24.3 24.7 26 24.7 29.5 0 3.5-1 4.9-12.2 16.8-6.7 7.1-20.4 21.2-30.3 31.3-9.9 10-18.8 18.2-19.7 18.2-1 0-3.4-1.9-5.3-4.3-2.8-3.4-3.5-5-3.5-8.5 0-4.1 0.5-4.7 20.8-26.3 11.4-12.1 21.1-23 21.6-24.2 0.6-1.4 0.5-3.3-0.2-5.2-0.6-1.7-7.3-9.3-14.9-17-7.5-7.7-16.8-17.6-20.5-22-5.2-6-6.8-8.7-6.8-11 0-1.7 1-4.7 2.2-6.8 1.1-2.2 2.8-4.5 3.7-5.3 0.9-0.7 2.5-1.3 3.6-1.3z"/>
</svg>
