<svg version="1.2" xmlns="http://www.w3.org/2000/svg" viewBox="0 0 640 640" width="640" height="640">
	<title>icon5-svg</title>
	<defs>
		<linearGradient id="g1" x1="114.2" y1="525.7" x2="525.8" y2="114.1" gradientUnits="userSpaceOnUse">
			<stop offset="0" stop-color="#5cd85a"/>
			<stop offset=".3" stop-color="#5cd85a"/>
			<stop offset=".6" stop-color="#5cd85a"/>
			<stop offset="1" stop-color="#5cd85a"/>
		</linearGradient>
	</defs>
	<style>
		.s0 { fill: url(#g1) } 
	</style>
	<path id="Path 0" fill-rule="evenodd" class="s0" d="m177.5 114.2c1.7-0.1 7.7 0.3 13.5 0.8 5.8 0.6 15.2 2.2 21 3.6 5.8 1.4 14.6 4.2 19.5 6.1 4.9 1.9 12.8 5.5 17.5 7.8 4.7 2.4 13.2 7.4 19 11.2 6.7 4.4 13.6 7.9 19 9.7 8 2.8 9.6 3 28 3.4 12.1 0.3 22.4 0 27-0.7 4.1-0.7 10.4-2.4 14-3.8 3.6-1.5 10.6-5.3 15.5-8.6 4.9-3.2 14.9-8.8 22-12.3 7.1-3.5 17.3-7.7 22.5-9.4 5.2-1.7 14-4 19.5-5.2 7.4-1.5 13.7-2.1 24.5-2.1 8 0 17.4 0.5 21 1.2 3.6 0.7 9.4 2.1 13 3.3 3.6 1.1 9.6 3.4 13.5 5.1 3.9 1.6 9.9 4.8 13.5 7 3.6 2.3 8.8 5.9 11.5 8.1 2.8 2.2 7.5 6.3 10.5 9.1 3 2.7 7.7 7.5 10.4 10.5 2.6 3 6.7 8 9 11 2.2 3 5 6.8 6.2 8.5 1.1 1.7 4.5 7.3 7.6 12.5 3 5.2 7.1 12.4 9 16 2 3.6 6.1 12.1 9.2 19 3.2 6.9 7.3 16.6 9.1 21.5 1.9 4.9 4.6 12.6 6 17 1.5 4.4 3.9 12.7 5.5 18.5 1.6 5.8 4.3 17 5.9 25 1.6 8 3.4 17.9 4 22 0.6 4.1 2 16.3 3.1 27 1.1 11.3 2 26.9 2 37 0 10.4-0.8 25.5-2 37-1.1 10.7-2.7 23.6-3.5 28.5-0.8 4.9-2.5 13.3-3.8 18.5-1.3 5.2-4.4 13.3-6.8 18-2.9 5.7-6.3 10.5-10.4 14.5-3.9 4-8.6 7.4-13.5 9.8-5.6 2.8-9.6 4-15.8 4.7-5.4 0.7-10.4 0.7-14.7 0-3.6-0.5-9.3-2.4-12.8-4.1-3.4-1.8-8-4.3-10.2-5.8-2.2-1.4-7.8-5.5-12.5-9.1-4.7-3.6-10.7-8.5-13.5-10.9-2.7-2.5-13.3-12.8-23.5-23-10.2-10.2-23.7-24.5-29.9-31.6-6.2-7.1-13-14.3-15-15.9-2-1.5-6.1-4-14.6-8.1l-104.5-0.3c-93.2-0.3-105.1-0.1-110.5 1.3-3.3 0.9-8.3 3-11.1 4.8-3.1 1.9-9.9 8.7-17.4 17.2-6.8 7.7-20.7 22.4-30.9 32.6-10.3 10.2-20.7 20.3-23.2 22.5-2.5 2.1-7.6 6.4-11.5 9.5-3.8 3-9.6 7.4-12.9 9.6-3.3 2.2-8.7 5.4-12 7.1-3.3 1.6-8.9 3.6-12.5 4.2-4.9 0.9-8.6 0.9-15 0.1-5.5-0.7-10.8-2.2-15-4.2-3.6-1.7-8.5-4.7-10.9-6.7-2.5-2-6.1-5.9-8.1-8.7-2.1-2.7-5.2-7.9-7-11.5-1.8-3.6-4.6-11.7-6.1-18-1.6-6.3-3.3-14.6-3.9-18.5-0.5-3.9-1.9-15.6-3-26-1.2-11.6-2-26-2-37 0-10.6 0.8-26 2-37.5 1.1-10.7 2.5-22.9 3.1-27 0.5-4.1 2.4-14 4-22 1.6-8 4.3-19.2 5.9-25 1.6-5.8 4.4-15.2 6.4-21 1.9-5.8 4.6-13.4 5.9-17 1.4-3.6 5.1-12.1 8.2-19 3.2-6.9 7.3-15.4 9.3-19 1.9-3.6 6-10.8 9.1-16 3.1-5.2 8.1-12.9 11.1-17.2 3-4.2 8.4-10.9 12-15 3.5-4 9.6-10.1 13.5-13.6 3.8-3.4 10.4-8.5 14.5-11.3 4.1-2.8 10.4-6.5 14-8.1 3.6-1.7 10.1-4.3 14.5-5.8 4.4-1.5 11.4-3.3 15.5-3.9 4.1-0.6 9.3-1.3 11.5-1.4 2.2-0.2 5.3-0.4 7-0.5zm240.6 81c-2.5 2.4-5.6 6.8-7 9.8-2 4.3-2.5 7.2-2.6 13 0 6.2 0.5 8.6 2.8 13.5 1.6 3.3 4 7.3 5.5 8.8 1.5 1.6 5 4 7.7 5.5 3.8 1.9 6.9 2.6 13 3 6.6 0.3 9.1 0 14-1.9 3.9-1.5 7.6-3.8 10.5-6.8 3.6-3.6 5.1-6.2 7-12.1 1.8-5.9 2.2-8.7 1.7-13-0.4-3-1.8-7.9-3.2-10.8-1.4-2.8-4-6.7-5.8-8.5-1.8-1.7-5.5-4.3-8.2-5.7-3.9-1.9-6.8-2.5-13-2.7-6-0.2-9.3 0.2-13 1.6-2.8 1.1-7 3.9-9.4 6.3zm-250.2 17l-2.5 1c-0.3 34.4-0.7 40.7-1.6 41.5-0.9 1-6.7 1.3-22 1.3h-20.8c-2.4 7.4-3.3 12-3.7 15-0.3 3.1 0 8.4 0.7 12 0.6 3.6 1.8 7.7 2.6 9.2l1.4 2.8c33.5 0 38.8 0.3 39.8 1.2 0.9 1 1.2 6.4 1.2 21.1v19.7c8.7 4.1 11.2 4.5 19.5 4.5 8.2-0.1 10.9-0.5 14.7-2.3l4.8-2.2c-0.1-34.7 0.2-39.8 1.2-40.7 0.9-0.8 7.5-1.3 21.7-1.5l20.5-0.3c4.3-10.4 4.9-13.9 5-19 0-5.7-0.6-8.2-3-13.3l-2.9-6.3c-38 0.1-39.1 0-40.3-1.9-0.9-1.5-1-6.4-0.5-20.9l0.8-18.9c-11.9-3.6-16.4-4.2-22-4.1-4.4 0.1-8.9 0.3-10 0.6-1.1 0.2-3.2 0.9-4.6 1.5zm339.3 27.7c-2 1-5.6 4-8 6.7-3.2 3.6-4.9 6.8-6.4 11.9-1.5 5.1-1.9 8.3-1.4 12 0.3 2.7 1.9 7.7 3.4 10.9 1.5 3.2 4.4 7.4 6.4 9.2 2.1 1.9 5.9 4.4 8.5 5.6 3.6 1.6 6.8 2.1 12.8 2.2 6.8 0 8.8-0.4 13.5-2.7 3-1.6 7.2-4.5 9.3-6.5 2-2 4.7-6 5.9-8.7 1.7-3.8 2.2-6.9 2.2-13 0-6.1-0.5-9.2-2.2-13-1.2-2.8-4.1-6.9-6.4-9.2-2.4-2.3-6.3-5.1-8.8-6.2-2.5-1.1-7.4-2.3-11-2.5-3.6-0.3-8.2-0.1-10.3 0.4-2 0.6-5.4 1.8-7.5 2.9zm-86.5 44.6c-2.1 1.3-4.9 3.9-6.2 5.7-1.3 1.8-3.3 6.2-4.5 9.8-1.8 5.1-2.1 7.8-1.6 12.5 0.4 3.3 1.7 8.2 3 11 1.2 2.7 4.1 6.8 6.2 9.1 2.4 2.4 6.1 4.9 9.6 6.2 3.7 1.4 8 2.2 12 2.2 3.5 0 8.3-0.7 10.8-1.5 2.5-0.9 6.6-3.1 9.2-5 3.5-2.5 5.6-5.2 7.8-9.8 1.7-3.4 3.3-8.7 3.7-11.7 0.5-4.2 0.1-7.2-1.5-12.5-1.3-4.1-3.6-8.6-5.6-11-1.8-2.2-5.7-5.3-8.7-7-4.6-2.4-6.7-3-13.9-3.2-5.8-0.2-9.8 0.1-12.5 1.2-2.2 0.8-5.7 2.6-7.8 4z"/>
</svg>