<svg version="1.2" xmlns="http://www.w3.org/2000/svg" viewBox="0 0 640 640" width="640" height="640">
	<title>icon2-svg</title>
	<defs>
		<linearGradient id="g1" x1="19.5" y1="620.6" x2="620.6" y2="19.5" gradientUnits="userSpaceOnUse">
			<stop offset="0" stop-color="#5cd85a"/>
			<stop offset=".3" stop-color="#5cd85a"/>
			<stop offset=".6" stop-color="#5cd85a"/>
			<stop offset="1" stop-color="#5cd85a"/>
		</linearGradient>
	</defs>
	<style>
		.s0 { fill: url(#g1) } 
	</style>
	<path id="Path 0" class="s0" d="m335.4 5c1.7 0 3.6 0.4 4.1 0.9 0.6 0.5 8.2 2.6 17 4.6 8.8 2 29.1 6.8 45 10.6 16 3.8 30 7.6 31.3 8.4 1.2 0.8 2.2 2.2 2.2 3 0 0.8-1.4 8.1-3.1 16.3-1.6 8.1-6.2 28.6-10 45.7-3.9 17.1-7.9 32.9-9 35.3-1.1 2.4-2.8 4.4-3.9 4.7-1.1 0.3-2.6 0.2-3.4-0.3-0.8-0.4-4.8-5.3-9-11-5.7-7.6-8.2-10.2-9.8-10.2-1.3 0-7.7 3-14.3 6.8-6.6 3.8-20.9 12.5-31.8 19.3-10.9 6.8-24.2 15.1-29.5 18.5-5.3 3.3-43 26.9-83.7 52.4-40.7 25.5-78.3 49-83.5 52.3-5.2 3.4-16.5 10.4-25 15.7-8.5 5.3-24.6 15.3-35.7 22.3-11.3 7.1-21 12.5-21.8 12.2-0.8-0.3-9-12.5-18.1-27.2-9.2-14.8-18.4-30.1-20.5-34-2.2-4-3.7-7.7-3.4-8.3 0.3-0.6 2.9-2.7 5.8-4.8 2.8-2.2 15.8-10.5 28.7-18.7 12.9-8.1 44.4-27.8 70-43.8 25.6-16 67.9-42.4 94-58.7 26.1-16.3 54.3-34 62.5-39.2 8.3-5.2 24.2-15.5 35.5-22.7 11.3-7.3 21.5-14.2 22.8-15.4 1.5-1.5 2-2.9 1.6-4.2-0.3-1.1-3.1-6.5-6.2-12-3-5.5-5.5-11.1-5.4-12.5 0-1.4 0.9-3.3 1.8-4.2 0.9-1 3.1-1.8 4.8-1.8zm201.6 52.4c5.2 0.3 12.7 1.5 16.5 2.5 3.9 1.1 9.9 3 13.5 4.3 3.6 1.3 9.2 3.9 12.4 5.8 3.3 1.9 9.8 7.3 14.5 12 6.5 6.5 9.9 10.8 13.8 18 2.9 5.2 6.5 12.9 7.9 17 2 5.8 2.8 10.9 3.6 22.5 0.7 9.5 1.2 94.5 1.4 231 0.1 124.1-0.1 223.6-0.7 233.8-0.6 12.1-1.4 18.6-2.4 20.7-0.8 1.6-3 4-4.7 5.2-2.7 1.8-5.2 2.3-14.1 2.8-5.9 0.3-10.7 0.8-10.7 1.2 0 0.5-17.1 0.8-38 0.8-24.3 0-38.2-0.4-38.5-1-0.3-0.6-6.6-1-15.7-1.1-8.4 0-19.9-0.3-25.5-0.7-9.5-0.7-10.4-0.9-16.3-6.7v-504l4.6-10.5c2.5-5.8 6.5-13.2 8.8-16.5 2.4-3.3 7-8.4 10.2-11.4 3.2-3 8.6-7.4 11.9-9.9 3.3-2.4 8.7-5.8 12-7.4 3.3-1.7 10.3-4.1 15.5-5.5 5.2-1.3 9.7-2.7 10-3 0.3-0.3 4.8-0.3 10 0.1zm-424 282.7c7.4-0.1 16.2 0.4 19.5 1 3.3 0.6 8.5 2.1 11.5 3.4 3 1.3 8.4 4 12 6.1 3.6 2.1 9.6 6.7 13.4 10.3 3.7 3.6 9 9.3 11.6 12.6 2.7 3.3 6.6 9.8 8.8 14.5 2.2 4.7 4.6 11.2 5.2 14.5 0.8 4.3 1.3 37.2 2.2 222l-10.7 10.5-144 0.1-5.2-5.6c-2.9-3-5.6-6.7-6-8.2-0.5-1.6-0.8-48.5-0.8-104.3 0-92.2 0.2-102.2 1.7-109.5 1-4.4 3.1-11.4 4.8-15.5 1.7-4.1 4.8-10.2 6.8-13.5 2-3.3 7-9.4 11.2-13.6 4.1-4.2 10.4-9.5 14-11.9 3.6-2.4 9.4-5.6 13-7.1 3.6-1.5 9-3.4 12-4.3 3.5-0.9 10.3-1.5 19-1.5zm214-141.7c7.3 0.3 14.1 1.2 18.8 2.5 3.9 1.2 10.5 3.7 14.5 5.7 3.9 2 9.9 5.6 13.2 7.9 3.3 2.4 8.5 7 11.7 10.2 3.1 3.2 7.3 8.5 9.4 11.8 2.1 3.3 5.2 9.2 10.1 20l1.5 371-2.6 1.8c-2.4 1.6-7.9 1.7-153.1 1.8l-3.5-2.4c-3.4-2.2-3.5-2.6-4.1-9.7-0.4-4.1-0.6-71.6-0.7-150 0-78.4 0.3-156.9 1.4-206.5l3.9-9.5c2.2-5.2 6.1-12.9 8.6-17 2.6-4.1 6.6-9.5 9-12 2.4-2.5 7.3-6.4 10.9-8.8 3.6-2.3 10.1-6 14.5-8.2 4.4-2.1 11.8-5.1 16.5-6.5 7.6-2.3 9.7-2.5 20-2.1z"/>
</svg>