<svg version="1.2" xmlns="http://www.w3.org/2000/svg" viewBox="0 0 640 640" width="640" height="640">
	<title>icon1-svg</title>
	<defs>
		<linearGradient id="g1" x1="10" y1="630" x2="629" y2="11" gradientUnits="userSpaceOnUse">
			<stop offset="0" stop-color="#5cd85a"/>
			<stop offset=".3" stop-color="#5cd85a"/>
			<stop offset=".6" stop-color="#5cd85a"/>
			<stop offset="1" stop-color="#5cd85a"/>
		</linearGradient>
	</defs>
	<style>
		.s0 { fill: url(#g1) } 
	</style>
	<path id="Path 0" class="s0" d="m358.3 11c4.7 0 7.4 0.6 11.2 2.5 3.8 2 24.8 22.4 90.6 88.3 56.9 57 86.1 87 87.2 89.5 1.1 2.3 1.7 6.3 1.7 10.7 0 4-0.6 8.4-1.5 10.3-0.8 1.7-24.2 25.9-52 53.7-31 31-51.6 50.9-53.4 51.5-1.6 0.6-3.3 1.3-3.7 1.8-0.4 0.4-3.4 0.7-6.6 0.7-3.2 0-6-0.4-6.3-1-0.3-0.6-1.3-1-2.3-1-0.9 0-4-1.6-6.7-3.4-2.8-1.9-6.8-5.3-9-7.5-2.2-2.3-4.5-4.1-5-4.1-0.6 0-23.3 22.2-99.6 98.5l2.3 3.7c1.3 2 2.9 3.7 3.5 3.8 0.7 0 1.7 1 2.2 2.3 0.5 1.2 1.8 3.1 3 4.2 1.2 1.1 2.2 2.6 2.1 3.3 0 0.6 0.3 1.2 0.7 1.2 0.5 0 1.4 1.4 2 3.2 0.7 1.8 1.3 5.9 1.3 9.1 0 4.1-0.6 6.9-2.3 9.8-1.2 2.2-24.5 26.3-52.2 54-27.5 27.5-50.7 50.4-51.5 50.9-0.8 0.5-2.5 1-3.8 1-1.2 0-2.2 0.5-2.2 1 0 0.5-2.5 1-5.5 1-3 0-5.7-0.3-5.9-0.7-0.2-0.5-1.9-1.1-3.7-1.6-2.8-0.6-20.2-17.5-91.2-88.5-48.2-48.2-87.7-88.1-87.7-88.7 0-0.6-0.9-2.8-2-5-1.1-2.2-2-5.2-2-6.7 0-1.6 1.3-5.7 3-9.3 2.8-6 7.1-10.6 53.1-56.5 38.3-38.3 50.7-50 52.5-50 1.3 0 2.6-0.4 2.9-1 0.3-0.6 3.4-1 7-1 5.2 0 7.5 0.6 11.6 2.8 2.9 1.5 6 3.1 6.9 3.7 1 0.6 2.7 1.9 3.9 3 1.3 1.1 2.8 3.1 3.4 4.5 0.7 1.4 2.1 2.6 3.2 2.8 1.5 0.2 15.3-13 102-99.6l-5.9-5.4c-3.2-2.9-7.2-7.3-8.9-9.8-2.3-3.5-3.1-6-3.5-11-0.4-4.8 0-7.9 1.4-12 1.8-5.1 5.1-8.7 52.6-56.3 40.4-40.4 51.2-50.7 53.3-50.7 1.4 0 2.7-0.4 3-1 0.4-0.5 3.4-1 6.8-1zm48.2 360c0.5 0 49.7 48.7 109.2 108.2 77 77 109 109.7 110.8 113.1 1.8 3.3 2.5 6.3 2.5 10 0 3.4-0.8 6.7-2.2 9.7-1.3 2.5-4.1 6.3-6.2 8.5-2.2 2.2-5.1 4.6-6.5 5.3-1.4 0.7-3.5 1.2-4.6 1.2-1.1-0.1-2.7 0.6-3.5 1.5-0.8 0.9-2.2 1.6-3 1.6-0.8-0.1-2.4-0.7-3.5-1.6-1.1-0.8-3.4-1.5-5-1.5-2.6 0-16.6-13.6-224-220.9l17.5-17.6c9.6-9.6 17.9-17.5 18.5-17.5z"/>
</svg>