<svg version="1.2" xmlns="http://www.w3.org/2000/svg" viewBox="0 0 640 640" width="640" height="640">
	<title>icon4-svg</title>
	<defs>
		<linearGradient id="g1" x1="53" y1="586.8" x2="586.7" y2="53.1" gradientUnits="userSpaceOnUse">
			<stop offset="0" stop-color="#5cd85a"/>
			<stop offset=".3" stop-color="#5cd85a"/>
			<stop offset=".6" stop-color="#5cd85a"/>
			<stop offset="1" stop-color="#5cd85a"/>
		</linearGradient>
	</defs>
	<style>
		.s0 { fill: url(#g1) } 
	</style>
	<path id="Path 0" fill-rule="evenodd" class="s0" d="m361 16.4c17.9 0.3 24.8 0.8 34 2.5 6.3 1.2 15.1 3.1 19.5 4.2 4.4 1.2 12.5 3.6 18 5.4 5.5 1.8 14.7 5.6 20.5 8.4 5.8 2.7 12.8 6.4 15.5 8 2.8 1.7 5.7 3.4 6.5 3.8 0.8 0.4 6 3.8 11.5 7.6 5.5 3.8 12 8.5 14.5 10.5 2.5 2 8.1 6.8 12.4 10.6 4.4 3.9 12.2 12.1 17.4 18.1 5.2 6 12.9 16.2 17.1 22.5 4.2 6.3 10.2 16.4 13.3 22.5 3 6.1 7.6 16.2 10.1 22.5 2.5 6.3 6.2 18 8.1 26 2 8 4.2 20.1 5 27 0.8 6.9 1.8 16.3 2.1 21 0.4 4.7 0.2 14.6-0.5 22-0.6 7.4-1.8 17.6-2.5 22.5-0.8 4.9-2.8 14.2-4.4 20.5-1.6 6.3-4.5 16-6.6 21.5-2 5.5-5.8 14.5-8.4 20-2.6 5.5-7.2 14.1-10.2 19-3 4.9-8.8 13.5-12.9 19-4 5.5-13.5 16.1-20.9 23.6-7.5 7.4-18.8 17.4-25.1 22.2-6.3 4.7-11.8 8.6-12.3 8.7-0.4 0-2.2 1-3.9 2.3-1.8 1.2-4.2 2.7-5.3 3.3-1.1 0.6-3.8 2.1-6 3.3-2.2 1.3-4.4 2.7-5 3.1-0.6 0.5-5.3 2.7-10.5 5-5.2 2.3-13.3 5.6-18 7.2-4.7 1.6-14.8 4.5-22.5 6.4-7.7 1.9-17.8 3.9-22.5 4.4-4.7 0.6-9.4 1.3-10.5 1.5-1.6 0.3-2.4 2.1-4.1 8.7-1.2 4.6-3.3 11.2-4.8 14.8-1.4 3.6-4.1 9-5.9 11.9-1.7 3-6.6 9.1-10.7 13.4-4.1 4.4-9.3 9.1-11.5 10.6-2.2 1.4-4.9 3.1-6 3.8-1.1 0.7-5.1 2.8-9 4.6-3.9 1.9-9.3 3.9-12 4.6-2.8 0.7-10.9 1.6-18 2.1-7.1 0.5-17.8 0.9-34.5 1l-10.9 12.8c-5.9 7-16.2 17.9-22.7 24.2-6.6 6.4-18 16.1-25.4 21.6-7.4 5.5-16.4 11.6-20 13.5-5.9 3.1-7.3 3.4-15 3.4-7.3 0-9.2-0.4-13.5-2.7-2.8-1.4-6.8-4.6-9-7-2.2-2.3-4.9-5.9-6-7.8-1.6-2.8-2-5.3-1.9-12.5 0.1-7.4 0.7-11 3.7-20.5 2-6.3 4-14.2 4.9-23.5l-10.1-0.8c-5.5-0.4-14-1.5-18.9-2.6-4.8-1-12.3-3.5-16.7-5.5-4.4-2.1-10.9-5.8-14.5-8.4-3.5-2.6-9.7-8.5-13.8-13.2-4-4.7-7.3-8.8-7.2-9.3 0-0.4-0.9-1.9-2-3.5-1.1-1.5-3.8-7.5-10-24.2v-127.5l3.7-10c2.1-5.5 6-13.3 8.8-17.4 2.7-4 8-10.5 11.7-14.2 3.8-3.8 9.2-8.5 12-10.4 2.9-1.9 9.1-5 13.8-6.9 4.7-2 13.1-4.3 28.8-7.1l-0.4-3c-0.2-1.6-1.1-11.3-2-21.5-1.5-17.1-1.5-19.8 0-36 0.9-9.6 2.3-21.1 3.1-25.5 0.9-4.4 2.7-12.5 4.1-18 1.4-5.5 4.6-15.2 7.1-21.5 2.5-6.3 6.7-15.8 9.4-21 2.7-5.2 6-11.3 7.4-13.5 1.4-2.2 2.9-4.9 3.4-6 0.5-1.1 4.4-6.7 8.7-12.5 4.3-5.8 13.2-16.1 19.8-22.8 6.7-6.8 15.7-15.4 20.1-19.2 4.4-3.7 12.1-9.4 17-12.7 4.9-3.3 13.1-8.3 18-11.1 4.9-2.8 14.3-7.4 20.7-10.2 6.5-2.7 17.1-6.5 23.5-8.4 6.5-1.9 16.7-4.4 22.8-5.5 6.1-1.1 13.9-2.5 17.5-3 3.6-0.5 16.6-0.8 29-0.7zm16.2 81.5c-0.2 31.5 0.1 40.1 1 40.1 0.7 0 7.2-0.5 14.3-1 7.1-0.6 18.2-1.7 24.5-2.5 6.3-0.9 11.9-1.9 12.3-2.3 0.4-0.4-0.3-3.6-1.6-7.2-1.3-3.6-4.3-10.6-6.7-15.5-2.3-5-5.4-10.8-6.9-13-1.4-2.2-3-4.7-3.6-5.6-0.6-0.9-2.2-3.4-3.6-5.5-1.4-2.1-5.1-6.6-8.1-9.9-3-3.3-7.9-7.9-10.9-10.1-3-2.3-6.5-4.9-7.9-5.9l-2.6-1.7zm-56.2-26.1c-4.7 4.8-11.2 12.7-14.4 17.7-3.3 4.9-9 15.3-12.8 23-3.7 7.7-7 15.3-7.4 17-0.6 2.9-0.4 3 3.8 3.8 2.3 0.4 9 1.4 14.8 2.2 5.8 0.7 15.5 1.7 21.5 2.1l11 0.7c1.1-3.7 1.5-18.8 1.5-35.8 0-17.1-0.2-33.8-0.5-37.3-0.3-3.4-0.9-6.2-1.3-6.2-0.4 0-2.3 0.9-4.2 2.1-1.9 1.2-7.3 6-12 10.7zm132.3 19.9c4.6 9.2 9.5 20.1 10.8 24 2.3 6.9 2.6 7.3 5.4 7.3 1.7 0 8.4-1.8 15-4.1 6.6-2.2 12.2-4.3 12.5-4.5 0.3-0.3-2-3-5-6-3-3.1-8.9-8.3-13-11.7-4.1-3.3-11.8-8.8-17-12.2-5.2-3.4-11.1-7.2-13.1-8.4-2-1.3-3.7-2-3.8-1.7 0 0.3 3.7 8.1 8.2 17.3zm-195.8-10.2c-1.6 0.8-6.8 4.3-11.5 7.8-4.7 3.5-12.7 10.3-17.8 15.2-5.1 5-9.3 9.2-9.3 9.5 0 0.3 5.6 2.4 12.3 4.8 6.8 2.4 13.6 4.2 15.2 4 2.4-0.3 3.2-1 4.3-4.3 0.7-2.2 1.7-4.9 2.2-6 0.5-1.1 1.5-3.6 2.2-5.5 0.7-1.9 3.1-7.3 5.4-12 2.3-4.7 5.6-11.1 7.3-14.3 2-3.5 2.7-5.7 2-5.7-0.7 0.1-3.1 1.2-5.3 2.5-2.2 1.3-5.3 3.1-7 4zm-73.3 83.5c-2.7 5.8-6.1 14.1-7.5 18.5-1.4 4.4-3.5 11.6-4.6 16-1.1 4.4-2.5 11.7-3 16.2-0.6 4.6-0.9 8.7-0.6 9.3 0.3 0.6 11.7 1 31 1 28.2 0 30.5-0.1 31-1.8 0.2-0.9 0.9-8 1.5-15.7 0.6-7.7 2.2-21 3.5-29.5 1.4-8.5 2.5-16.2 2.5-17 0-1.1-3-2.4-9.8-4.3-5.3-1.6-15-4.9-21.4-7.3-6.5-2.4-12-4.4-12.3-4.4-0.2 0-1.5 1.9-2.9 4.2-1.4 2.4-4.7 9-7.4 14.8zm313.8-11c-10.2 3.5-18.8 6.6-19.2 6.9-0.4 0.3 0.2 6.7 1.3 14.1 1.1 7.4 2.6 20.9 3.5 30 0.8 9.1 1.7 17.5 1.9 18.7l0.5 2.3h61.5c-0.5-8.2-1.5-15-2.6-20.5-1.2-5.5-3.7-14.7-5.6-20.5-1.9-5.8-5.8-15.5-8.6-21.5-2.8-6.1-6.1-12.5-7.4-14.3-1.3-1.8-2.6-3.2-3-3.2-0.5 0-1.5 0.4-2.3 0.9-0.8 0.5-9.8 3.7-20 7.1zm-226.5 34.5c-0.8 4.9-1.9 14.9-2.5 22.2-0.5 7.3-0.8 13.7-0.5 14.3 0.3 0.6 12.4 1 33.3 1 18 0 33.7-0.3 35-0.5l2.2-0.5c0-48 0-48-2.2-48.8-1.3-0.5-9.5-1.4-18.3-2.1-8.8-0.7-20.9-1.9-27-2.7-6-0.8-12.2-1.7-13.6-2-2.4-0.5-2.7-0.2-3.7 4.8-0.7 2.9-1.8 9.3-2.7 14.3zm128-14.1c-11 0.9-20.6 1.9-21.2 2.1-1 0.4-1.3 6.3-1.3 25v24.5c54 0 69.1-0.4 70-1 1.3-0.8 1.2-3.1-0.7-19.2-1.2-10.1-2.9-22.3-3.8-27.1l-1.5-8.7c-5 0.2-9.9 0.8-14 1.5-4.1 0.7-16.5 2-27.5 2.9zm-130.3 99.3c0.3 5.9 0.8 11.3 1.1 12 0.5 0.9 3.8 1.3 11 1.3 5.6 0 14.3 0.5 19.2 1 5 0.6 11.7 1.8 15 2.6 3.3 0.9 9.8 3.3 14.5 5.5 4.7 2.2 8.6 3.9 8.8 3.9 0.1 0 0.2-8.1 0.2-18 0-15.1-0.2-18.1-1.5-18.5-0.8-0.3-16.6-0.5-35.1-0.5h-33.7zm215.4 2.7c-0.4 6.1-1.1 14-1.6 17.5-0.5 3.6-1.8 12.6-2.9 20-1.6 10.5-1.7 13.7-0.8 14.3 0.7 0.3 8.6 3.2 17.7 6.3 9.1 3 17.9 6.3 19.5 7.1 1.7 0.8 3.7 1.3 4.5 1.1 0.8-0.2 3.4-4 5.7-8.4 2.2-4.3 5.9-12.1 8.1-17.4 2.2-5.2 5.2-13.7 6.6-19 1.4-5.2 3.5-14.2 4.6-20 1.1-5.7 2-11.5 2-12.7v-2.3c-53.5 0-61 0.3-61.8 1.3-0.5 0.7-1.3 6.2-1.6 12.2zm-316.2-3.5c0.8 4.2 2.1 9.3 2.8 11.5l1.3 4 59 0.6c-1.1-17.9-1.7-23.5-2-24.1-0.3-0.6-11.4-1-30.2-0.9-16.4 0-30.4 0.3-31.1 0.7-1.1 0.6-1.1 2 0.2 8.2zm209.1 40.5c17.8 1.3 31.8 2.7 42.5 4 10.7 1.3 19.8 2.1 20.2 1.7 0.3-0.4 1.3-4.3 2.2-8.7 0.9-4.4 2.3-13.8 3.1-21 0.8-7.1 1.6-15.8 1.7-19.2l0.3-6.3h-70.5zm-261 16.6c-2.9 1.3-7.7 5-11.5 8.8-4.3 4.3-7.8 9.1-10 13.6l-3.5 7c-0.6 109.5-0.5 112.3 1.4 118.5 1.1 3.6 3.7 9.2 5.9 12.5 2.2 3.3 5.2 7.2 6.8 8.7 1.6 1.5 4.7 3.6 6.9 4.9 2.2 1.2 6.5 3 9.5 4.1 4.2 1.4 9.8 2 24.5 2.4 10.4 0.3 21.5 1 24.5 1.5 3.7 0.7 6.4 1.9 8.3 3.7 1.6 1.5 3.6 4.1 4.5 5.7 1.3 2.4 1.7 5.7 1.7 16-0.1 7.4-0.9 18.2-1.9 25-1 6.6-1.7 12.6-1.5 13.3 0.2 0.8 5.6-3.4 12.9-10 6.9-6.3 15.9-15.2 20.1-19.8 4.2-4.7 11.9-13.6 17-20 6.4-7.8 10.7-12.1 13.4-13.4 3.6-1.8 6.9-2.1 31-2.6 24.5-0.6 27.5-0.9 32.5-2.8 3-1.2 7.7-3.7 10.4-5.4 2.7-1.8 6.7-5.3 8.8-7.8 2.1-2.4 5.3-7.8 7.1-12l3.2-7.5v-113c-3.7-9.3-6-13.8-7.5-16-1.5-2.2-4.9-5.9-7.6-8.2-2.7-2.3-7.8-5.7-11.4-7.5l-6.4-3.3c-133.4-0.2-174.8 0.1-178.1 0.5-3.3 0.4-8.3 1.8-11 3.1zm260.5 100.9c8.1-4.9 14.1-10 18.6-14.4 4.4-4.4 10.1-11 12.6-14.6 2.6-3.5 7.3-11.9 10.6-18.5 3.2-6.6 7-15.1 8.4-18.9 1.8-4.8 2.2-7.1 1.4-7.7-0.6-0.4-4-1.3-7.6-1.9-3.6-0.6-11.7-1.8-18-2.5-6.3-0.8-14.8-1.5-18.8-1.5h-7.2zm86.4-56c-1.5 4.2-4.6 11.6-6.9 16.5-2.3 5-5.8 12-7.9 15.5-2 3.6-3.6 6.8-3.4 7.2 0.1 0.4 3.9-1.4 8.3-4.1 4.4-2.6 11.8-7.4 16.5-10.8 4.7-3.3 12.7-10 17.8-14.9 5.1-4.9 8.9-9.2 8.5-9.6-0.5-0.4-6-2.6-12.3-4.7-6.3-2.2-12.7-4-14.2-4-1.5 0-2.9 0.3-3.2 0.7-0.2 0.4-1.7 4.1-3.2 8.2zm-316.1-9l67.6 0.2c67.1 0.3 67.6 0.4 71.1 2.5 1.9 1.2 4.9 3.7 6.7 5.7 3 3.4 3.3 4.1 3.3 10.6 0 6.7-0.2 7.2-3.8 11.2-2 2.3-5.3 4.9-7.2 5.7-3.1 1.4-11 1.7-64.5 1.8-33.6 0.1-64.4-0.2-68.5-0.7-4.8-0.5-8.4-1.6-10-2.8-1.4-1-3.8-3.4-5.3-5.3-2.4-3-2.8-4.2-2.8-10.4-0.1-5.3 0.4-7.5 1.8-9.5 1.1-1.3 4.1-3.9 6.8-5.8zm-2 64l69 0.3c59.3 0.3 69.5 0.5 71.6 1.8 1.4 0.8 3.6 2.4 4.9 3.5 1.3 1.1 3.2 3.7 4.2 5.8 1.1 2 1.9 5.2 1.9 7 0 1.8-1 5.2-2.2 7.7-1.3 2.7-4 5.7-10.9 10.5l-67.7 0.4c-65.7 0.3-67.8 0.3-71.7-1.6-2.2-1.1-5.4-3.7-7.2-5.6-2.3-2.6-3.4-5-3.9-8.4-0.3-2.6-0.1-6.4 0.4-8.3 0.7-2.1 3.1-5.4 6.3-8.3z"/>
</svg>