<svg version="1.2" xmlns="http://www.w3.org/2000/svg" viewBox="0 0 500 500" width="500" height="500">
	<title>extra_icon2-svg</title>
	<defs>
		<linearGradient id="g1" x1="23.6" y1="477" x2="477.1" y2="23.5" gradientUnits="userSpaceOnUse">
			<stop offset="0" stop-color="#5cd85a"/>
			<stop offset=".3" stop-color="#5cd85a"/>
			<stop offset=".7" stop-color="#5cd85a"/>
			<stop offset="1" stop-color="#5cd85a"/>
		</linearGradient>
	</defs>
	<style>
		.s0 { fill: url(#g1) } 
	</style>
	<path id="Path 0" fill-rule="evenodd" class="s0" d="m267.5 23.5c101.1 0.2 144.3 0.6 150 1.4 4.4 0.6 11.4 2.3 15.5 3.6 4.1 1.4 10.2 4.2 13.5 6.4 3.3 2.1 8.5 6.6 11.5 9.9 3 3.3 7.4 9.5 9.8 13.8 2.3 4.4 4.2 8.6 4.2 9.4 0 0.8 0.6 2.6 1.3 4 0.7 1.4 1.9 4.7 2.6 7.5 0.8 3.3 1.2 13.1 1.2 28.5 0 17.8-0.4 25.4-1.6 31.5-0.9 4.4-2 8.4-2.4 9-0.5 0.6-1.1 2.5-1.5 4.2-0.3 1.8-1.1 3.9-1.6 4.5-0.6 0.7-2.4 4-4.1 7.3-1.8 3.3-3.9 7.3-4.7 9-0.9 1.7-1.6 4.4-1.6 6.2-0.1 1.8 1 5.4 2.4 8 1.4 2.6 2.9 5.2 3.5 5.8 0.6 0.6 1.9 3.4 3 6.3 1.1 2.9 2.3 5.2 2.7 5.2 0.5 0 0.8 1.2 0.8 2.7 0 1.6 0.7 3.8 1.5 5 0.8 1.3 2 5.6 2.5 9.5 0.6 4 1.1 17.2 1.1 29.3 0 16.3-0.4 23.9-1.5 29.2-0.9 4-2 7.5-2.6 7.8-0.6 0.3-1 1.7-1 3.2 0 1.6-0.9 3.9-2 5.3-1.1 1.4-2 3.1-2 3.7 0 0.7-2 4.8-4.5 9-2.6 4.5-4.5 9.1-4.5 10.8 0 1.7 1.9 6.2 4.3 10.5 2.4 4.1 5 9 5.8 10.8 0.8 1.8 1.7 3.3 2.1 3.2 0.5 0 0.8 1.1 0.8 2.5 0 1.4 0.5 3.5 1.2 4.7 0.6 1.3 1.7 5 2.5 8.3 1 4.2 1.4 13.2 1.4 30 0 18-0.4 25.8-1.5 31.2-0.9 4-2 7.5-2.6 7.8-0.6 0.3-1 1.5-1 2.7 0 1.3-1.2 4.5-2.6 7.3-1.4 2.7-4.4 7.4-6.7 10.4-2.3 3-7 7.7-10.3 10.5-3.4 2.8-7.2 5.9-8.5 6.9-1.3 0.9-3.2 1.7-4.1 1.7-0.9 0-2.4 0.7-3.2 1.5-0.9 0.8-4 2-6.8 2.6-2.9 0.5-5.5 1.2-5.8 1.4-0.3 0.2-5.7 0.9-12 1.4-7.2 0.7-54.1 1.1-125.5 1.1-62.7 0-135.4-0.3-161.5-0.6-38.6-0.5-47.9-0.9-49.5-2-1.1-0.8-3-1.4-4.3-1.4-1.2 0-6.4-2.1-11.5-4.7-7.1-3.6-10.9-6.4-16.7-12.2-4.2-4.3-8.9-10.2-10.7-13.6-1.8-3.3-4.4-10.5-6-16-2.7-9.8-2.8-10.6-2.8-35 0.1-24 0.2-25.4 2.8-35 1.5-5.6 5.2-15.1 8.4-21.5 3.1-6.3 5.7-12.9 5.8-14.6 0-1.8-2.3-7.7-5.7-14.5-3.2-6.3-6.9-15.5-8.4-20.4-2.5-8.6-2.6-10.1-2.8-34.5-0.1-25 0-25.7 2.7-35.5 1.6-6 5.1-14.8 8.7-21.8 3.3-6.4 6-12.8 6-14.2 0-1.4-2.7-7.7-6-14-3.5-6.8-7.1-15.5-8.8-21.3-2.6-9.5-2.7-10.3-2.6-35.2 0-24.6 0.1-25.9 2.7-35.5 1.5-5.5 4.1-12.5 5.8-15.5 1.6-3 6-8.8 9.7-12.9 3.7-4 9.2-8.8 12.2-10.5 3-1.8 8-4.2 11-5.3 3-1.2 7.3-2.7 9.5-3.4 2.2-0.6 14.6-1.5 27.5-1.9 12.9-0.4 87.4-0.6 165.5-0.5zm-196.5 34.5c-1.4 0.7-4.4 3.1-6.8 5.4-2.4 2.2-5.1 5.4-6 7.1-0.8 1.6-2.1 5.5-2.9 8.5-0.9 4-1.2 13-1 33.5 0.2 27.4 0.3 28.1 2.6 33 1.4 2.7 4.8 7.3 7.5 10 3.6 3.6 6.4 5.4 9.6 6.2 2.5 0.7 9.2 1.7 15 2.3 7.5 0.8 56.3 1 171 0.7 113.8-0.3 161.6-0.8 164.3-1.6 2-0.6 5.1-2.2 6.7-3.6 1.6-1.4 3.2-2.5 3.5-2.5 0.2 0 1.6-1.1 3-2.5 1.4-1.4 2.5-2.7 2.5-3 0-0.3 0.8-1.7 1.9-3.3 1-1.5 2.3-5.9 2.9-9.7 0.6-3.9 1.3-17.1 1.6-29.5 0.4-17.7 0.2-23.8-0.9-28.5-0.9-3.3-2.6-7.8-3.9-10-1.3-2.2-4.3-5.8-6.7-7.9-2.4-2.2-5.8-4.5-7.4-5.2-1.6-0.7-6.8-1.7-11.5-2.3-5.8-0.8-59.6-1.1-168.5-1-123.9 0.1-161.6 0.4-167 1.3-3.9 0.7-8.1 1.9-9.5 2.6zm114.4 137.1c-45.6 0-89 0.3-96.4 0.7-11.6 0.7-14.2 1.1-18.5 3.3-2.9 1.5-6.8 4.7-9.3 7.7-2.3 2.9-4.7 6.9-5.4 8.9-0.7 2.3-1.3 13.9-1.5 29.8-0.2 14.9 0.1 28.9 0.7 32.8 0.5 3.7 1.7 8.1 2.5 9.7 0.8 1.6 3.2 4.9 5.2 7.1 2.1 2.3 5.5 5 7.5 6 2.1 1.1 7.1 2.4 11 3.1 5.3 0.8 53.4 1.1 174.5 1.2l167.1 0.1c4.8-3.5 6.6-4.5 7.1-4.5 0.5 0 3.1-2.1 5.7-4.7 2.5-2.7 5.5-6.4 6.4-8.3 1-1.9 2.3-6 3-9 0.8-3.8 1.1-14.3 0.8-34l-0.3-28.5c-4.9-7-8.3-10.8-10.7-13.1-2.3-2.2-6.1-5.2-8.3-6.5l-4-2.4c-119.1 0-153.8 0.1-153.9 0.3-0.2 0.1-37.6 0.2-83.2 0.3zm-115.9 145.1c-1.6 0.8-4.7 3.5-6.8 5.9-2.1 2.4-4.8 6.2-5.9 8.4-1.3 2.5-2.2 6.6-2.4 11-0.2 3.9-0.6 15.1-0.8 25-0.2 9.9 0 21.6 0.5 26 0.8 6.8 1.5 8.8 4.7 13.5 2.1 3 6.1 7.2 8.8 9.2 2.7 2.1 7.2 4.3 9.9 5 4 1 40.4 1.3 176.2 1.3h171.1c3.7-3.5 5.3-4.5 6-4.5 0.6 0 3.9-3 7.2-6.7 4.8-5.4 6.2-7.7 6.8-11.3 0.4-2.5 0.7-17.3 0.7-33 0-21-0.4-29.7-1.3-33-1-3.3-3.3-6.4-8.5-11.6-5.1-5.1-8.4-7.5-11.2-8.3-2.8-0.8-53.4-1.1-173-1-130.6 0.1-170.1 0.4-174 1.3-2.7 0.7-6.3 1.9-8 2.8zm113-245.2l3.8 2.5c2 1.4 4.3 3.7 5.1 5.3 0.8 1.5 1.5 3.6 1.6 4.7 0.1 1.1 0.2 3 0.1 4.3 0 1.2-1.9 4.1-8 10.7h-81l-3.6-3.5c-2-1.9-4-5.1-4.5-7-0.5-2-0.5-4.8 0-6.5 0.5-1.6 2.3-4.3 4-6 2.8-2.7 4-3.1 11.3-3.6 4.5-0.3 22.4-0.7 71.2-0.9zm139.5 0.7c1.4 0.3 3.2 0.9 4 1.4 0.8 0.4 2.9 2.1 4.5 3.9 2.6 2.7 3 3.9 3 8.5 0 4.3-0.5 5.9-2.5 8-1.4 1.5-3.8 3.4-5.5 4.2q-3 1.5-7 0.9-4-0.6-7.3-3.8c-1.8-1.8-3.7-4.9-4.2-6.8-0.5-2-0.5-4.8 0-6.5 0.5-1.6 2.2-4.2 3.7-5.7 1.5-1.6 4.2-3.2 5.8-3.7 1.7-0.5 4.1-0.6 5.5-0.4zm67.5 0.3c1.9 0 5.1 0.7 7 1.5 1.9 0.8 4.2 2.5 5 3.8 0.8 1.2 1.8 3.6 2.3 5.2 0.5 1.7 0.5 4.4 0.1 6-0.5 1.7-2.3 4.5-4.1 6.3-2.3 2.2-4.6 3.4-7.3 3.8-2.8 0.3-5.1-0.1-7.5-1.3-1.9-1-4.5-3.4-5.8-5.3-1.9-2.8-2.3-4.4-1.9-8 0.4-3.6 1.3-5.2 4.6-8.2 3.1-2.9 4.9-3.8 7.6-3.8zm-241.3 140.4c34 0.1 35.8 0.2 38.4 2.1 1.4 1.1 3.5 3.1 4.6 4.5 1.3 1.6 2 4.1 2 7 0 2.8-0.7 5.4-1.9 6.9-1 1.3-3.1 3.3-4.6 4.5-2.7 2-4 2.1-35.5 2.4-18 0.2-36.1 0.1-40.2-0.3-6.9-0.7-7.8-1-11-4.4-2-2-3.8-4.9-4.2-6.6-0.3-1.6-0.4-3.9-0.1-5 0.2-1.1 1.8-3.8 3.6-5.9 2.7-3.3 4-4.1 8.2-4.7 2.8-0.4 21.1-0.6 40.7-0.5zm174.3 0.2c1.7 0.3 4.1 1.3 5.5 2.3 1.4 1 3.3 3.4 4.3 5.5 0.9 2 1.7 4.5 1.7 5.6 0 1.1-0.9 3.8-2 6-1.5 3-3.2 4.5-6.5 6-3.6 1.6-5.2 1.8-8.2 1-2.1-0.5-4.8-1.9-6-3.2-1.2-1.3-2.9-4-3.7-6-1.5-3.5-1.5-4.1 0.3-8 1-2.4 2.7-5.1 3.7-6 1-1 3.3-2.2 4.9-2.7 1.7-0.6 4.4-0.8 6-0.5zm70 0.1c1.7 0.2 4.1 1.2 5.5 2.2 1.4 0.9 3.5 3.7 4.8 6.2 2.2 4.2 2.2 4.6 0.7 8.4-0.9 2.2-2.6 5-3.8 6.3-1.2 1.3-3.9 2.7-5.9 3.2-3.1 0.8-4.7 0.6-8.3-1-2.5-1.1-5.2-3-6-4.2-0.8-1.3-1.6-3.9-1.8-5.9-0.1-2 0.5-5.3 1.4-7.5 0.9-2.1 2.3-4.5 3-5.1 0.8-0.7 2.8-1.7 4.4-2.2 1.7-0.5 4.4-0.7 6-0.4zm-254.5 139.5c12.4 0 28 0.3 34.7 0.6 11.7 0.7 12.3 0.8 15.4 3.7 1.7 1.6 3.8 4.5 4.5 6.3 1 2.3 1.1 4.1 0.5 6.5-0.6 1.7-2.8 4.9-9.1 10.7l-79.9-0.5-3.2-3c-1.7-1.6-3.8-4.5-4.5-6.2-1-2.4-1.1-4.2-0.4-6.5 0.5-1.8 2.4-4.8 4.2-6.6 2.7-2.7 4.4-3.5 9.3-4.1 3.3-0.5 16.1-0.9 28.5-0.9zm181 0.8c1.7 0 4.5 0.6 6.3 1.4 1.7 0.7 4.3 2.6 5.7 4.1 2 2.1 2.5 3.7 2.5 8 0 4.6-0.4 5.8-3 8.6-1.6 1.7-4.3 3.7-6 4.5-2.2 1-3.9 1.1-6.5 0.3-1.9-0.5-5-2.4-6.8-4.2-1.8-1.7-3.7-4.9-4.2-6.9-0.8-2.8-0.6-4.5 0.4-6.5 0.7-1.6 3-4.3 5-6 2.4-2.2 4.7-3.3 6.6-3.3zm73.5 0.5c2.7 0.4 5.1 1.6 7.2 3.8 1.8 1.8 3.7 4.6 4.2 6.2 0.6 2 0.4 4.3-0.5 7-0.8 2.2-2.2 4.8-3.1 5.8-1 0.9-3.6 2.3-5.8 3.1-2.7 0.9-5 1.1-7 0.5-1.6-0.5-4.6-2.5-6.5-4.4-3.1-3.2-3.5-4.1-3.5-8.9 0-3.9 0.6-6.2 2-8.2 1.2-1.6 3.6-3.4 5.5-4.1 2-0.7 5.2-1.1 7.5-0.8z"/>
</svg>