<svg version="1.2" xmlns="http://www.w3.org/2000/svg" viewBox="0 0 1000 1000" width="1000" height="1000">
	<title>Website Icon - Dark Theme</title>
	<style>
		.s0 { fill: #667068 } 
		.s1 { fill: #fefffe } 
	</style>
	<g id="vertz_pfp">
		<path id="Path 0" class="s0" d="m145 101c74.7 0 113 0.3 113 1 0 0.5 0.7 1 1.5 1 0.8 0 2.1 1.1 2.8 2.4 0.6 1.3 3.5 6 6.2 10.5 2.8 4.5 6.2 10.3 7.7 12.9 1.6 2.6 3.4 5.8 4 7.2 0.7 1.4 1.6 2.9 2.1 3.5 0.4 0.6 1.8 2.7 3.2 4.8 1.4 2 3.2 5.2 4 6.9 0.8 1.8 2.7 5.5 4.3 8.3 1.6 2.7 4.1 7.2 5.7 10 1.5 2.7 3.6 6.1 4.6 7.5 0.9 1.4 2.2 3.6 2.8 5 0.6 1.4 2.5 4.7 4.1 7.5 1.6 2.7 4 6.9 5.2 9.1 1.3 2.3 3.3 5.9 4.6 8 1.2 2.2 3.4 5.7 4.7 7.9 1.3 2.2 3.2 5.6 4.2 7.5 1 1.9 2 3.7 2.3 4 0.3 0.3 1.4 1.8 2.5 3.5 1 1.7 3.3 5.7 5.1 9 2 3.8 2.9 6.5 2.4 7.5-0.7 1.3-1.3 1.1-4.1-1-1.9-1.3-9.3-7.2-16.4-13-7.1-5.9-15.7-12.7-19-15.2-3.3-2.5-10.7-7.8-16.5-11.8-5.8-4-18.1-12.1-27.5-18-9.3-5.8-21.3-13-26.5-16-5.2-2.9-17.4-9.2-27-13.9-9.6-4.8-22.4-10.8-28.5-13.3-6.1-2.6-16.2-6.7-22.5-9.1-6.3-2.4-15.1-5.5-19.5-6.9-4.4-1.4-11.8-3.7-16.5-5.1-4.7-1.4-17.3-4.6-28-7.1-10.7-2.4-24.7-5.4-31-6.5-6.3-1.1-14.2-2.3-17.5-2.7-3.3-0.3-6.8-0.8-7.8-1-0.9-0.2-1.7-1.3-1.7-2.4 0-2 0.7-2 113-2zm716 0.1c107.7-0.2 113.6-0.1 115.3 1.6 1.5 1.6 1.6 2.2 0.5 4.8-0.7 1.7-2.6 5.2-4.3 8-1.7 2.7-3.6 6.1-4.3 7.5-0.8 1.4-2.5 4.6-4 7.1-1.5 2.5-3.8 6.5-5.2 8.9-1.4 2.4-3.7 6.4-5.2 8.9-1.4 2.5-3.4 5.9-4.3 7.6-0.9 1.7-2.8 5.1-4.3 7.7-1.5 2.6-6 10.5-10.1 17.5-4 7-8.5 14.8-9.9 17.3-1.3 2.5-2.8 4.9-3.2 5.5-0.4 0.6-1.8 2.8-3.1 5-1.2 2.2-3.3 6-4.7 8.5-1.3 2.5-3.3 5.7-4.3 7.2-1 1.6-1.9 3-1.9 3.3 0 0.3-1.7 3.1-3.7 6.2-2 3.2-4.7 7.6-5.9 9.8-1.1 2.2-3.4 6.2-4.9 9-1.5 2.7-3.5 6.1-4.4 7.5-1 1.4-2.3 3.6-3 5-0.6 1.4-2.4 4.6-3.9 7.2-1.5 2.6-4.7 8.1-7.2 12.4-2.5 4.2-5.7 9.7-7.2 12.3-1.5 2.5-3.6 6.4-4.8 8.6-1.2 2.2-2.9 5.4-3.8 7-0.9 1.6-3.2 5.2-5.1 8-1.8 2.7-4 6.4-4.8 8-0.8 1.6-2.2 4.4-3.1 6-0.9 1.6-3.6 5.9-6 9.5-2.3 3.6-4.3 6.6-4.2 6.7 0 0.2-12.9 13.3-28.7 29.2-15.9 15.8-33.5 32.7-39.3 37.4-5.8 4.8-15.5 12.5-21.5 17.2-6 4.7-17.6 13-25.6 18.3-8.1 5.3-19.3 12.3-25 15.4-5.7 3.1-15.1 8-20.9 10.9-5.8 2.8-17 8-25 11.5-8 3.6-20.6 8.5-28 10.9-7.4 2.4-18.5 5.6-24.5 7-6 1.5-18.9 4-28.5 5.6-13.8 2.3-22.4 3.1-64.3 4.4l0.8-3.5c0.4-1.9 1.6-4.7 2.6-6.3 1.1-1.5 1.9-2.9 1.9-3.2 0-0.3 1.6-3.1 3.6-6.3 2-3.1 4.1-6.6 4.5-7.7 0.5-1.1 2.1-4.1 3.7-6.6 1.5-2.6 4.7-8.2 7.2-12.5 2.5-4.3 5.7-9.8 7.2-12.3 1.5-2.6 3.4-6 4.3-7.6 0.8-1.6 4-7.1 6.9-12 3-4.9 6.4-10.8 7.6-13 1.1-2.2 3.2-5.8 4.5-8 1.3-2.2 3.4-5.6 4.5-7.5 1.1-1.9 3.2-5.3 4.5-7.5 1.3-2.2 3.3-5.8 4.4-8 1.1-2.2 2.8-5.4 3.8-7 1-1.6 3.4-5.7 5.4-9 1.9-3.3 3.8-6.7 4.2-7.5 0.4-0.8 2.5-4.4 4.7-8 2.2-3.6 4.5-7.6 5.2-9 0.7-1.4 2.7-4.9 4.5-7.8 1.8-2.8 3.3-5.4 3.3-5.7 0-0.3 0.9-1.7 1.9-3.3 1-1.5 3-4.7 4.3-7.2 1.4-2.5 4.2-7.4 6.3-11 2.1-3.6 7-12.1 10.8-19 3.9-6.9 7.3-12.7 7.6-13 0.4-0.3 1.4-2.1 2.4-4 0.9-1.9 2.8-5.3 4.2-7.5 1.3-2.2 3.1-5.5 4-7.3 0.8-1.7 3-5.3 4.8-8 1.8-2.6 3.8-5.8 4.5-7.2 0.7-1.4 2.6-4.8 4.2-7.5 1.7-2.8 3.8-6.6 4.8-8.5 1-1.9 3.1-5.5 4.7-8 1.7-2.5 3.9-6.3 5.1-8.5 1.1-2.2 2.9-5.6 3.9-7.5 1-1.9 2.6-4.6 3.5-6 0.9-1.4 2.8-4.5 4.2-7 1.4-2.5 5.4-9.4 8.8-15.5 3.5-6.1 7.1-12.3 8-14 1-1.7 5.7-9.8 10.5-18 4.8-8.3 9.6-16.6 10.8-18.5 1.1-1.9 3-5.1 4.1-7.1 1.2-2.1 4-7 6.3-11 2.3-4.1 5.3-8.9 6.6-10.8 1.4-1.8 3.6-3.9 4.9-4.6 1.8-1 26.4-1.3 115.8-1.4z"/>
		<path id="Path 1" class="s1" d="m30.4 104c2.8 1 7.8 2.1 11.1 2.4 3.3 0.4 11.2 1.6 17.5 2.7 6.3 1.1 20.3 4.1 31 6.5 10.7 2.5 23.3 5.7 28 7.1 4.7 1.4 12.1 3.7 16.5 5.1 4.4 1.4 13.2 4.5 19.5 6.9 6.3 2.4 16.4 6.5 22.5 9.1 6.1 2.5 18.9 8.5 28.5 13.3 9.6 4.7 21.8 11 27 13.9 5.2 3 17.2 10.2 26.5 16 9.4 5.9 21.7 14 27.5 18 5.8 4 13.9 9.8 18 13 4.1 3.1 13 10.2 19.6 15.6 6.7 5.4 14.1 11.3 16.5 12.9 2.4 1.7 6.2 5.8 8.5 9 2.2 3.3 7.7 12.3 12.1 20 4.4 7.7 14 24.4 21.3 37 7.3 12.6 18.4 32 24.7 43 6.3 11 12.8 22 14.4 24.5 1.6 2.5 3.6 6 4.4 7.8 0.8 1.7 1.8 3.4 2.3 3.6 0.4 0.2 1.2 1.6 1.9 3.2 1 2.6 0.8 3.7-2.3 9.9-1.9 3.9-5.3 9.9-7.5 13.5-2.3 3.6-11.6 19.7-20.8 35.9-9.1 16.1-17.7 31.3-19.1 33.6-1.4 2.4-4.5 7.6-6.9 11.7-2.4 4-8 13.6-12.4 21.3-4.3 7.7-9.8 17.1-12.2 21-2.3 3.9-9.4 16.2-15.7 27.5-6.4 11.3-13.3 23.6-15.4 27.4-2.2 3.8-4.7 7.4-5.6 8-1.3 0.8-2.3 0.8-3.5 0-1-0.6-5.5-7.4-10-15-4.5-7.7-9.1-15.3-10.2-16.9-1-1.6-7.9-13.6-15.1-26.5-7.3-12.9-14.8-26.2-16.7-29.5-1.9-3.3-5.2-8.9-7.5-12.5-2.2-3.6-5.4-9-7.1-12-1.7-3-4-7.2-5.1-9.2-1.2-2-4.3-7.4-7-12-2.7-4.6-10.1-17.5-16.5-28.8-6.5-11.3-13.8-23.9-16.2-28-2.5-4.1-6.5-10.9-8.8-15-2.3-4.1-7.3-12.7-11.1-19-3.7-6.3-8.7-15.1-11-19.5-2.4-4.4-6.9-12.3-10-17.5-3.2-5.2-9.4-16-13.9-24-4.5-8-10.7-18.6-13.7-23.5-3.1-4.9-9.8-16.6-15.1-26-5.2-9.4-13.8-24.4-19.1-33.5-5.2-9.1-10.1-17.2-10.8-18-0.7-0.8-2.9-4.9-5-9-2-4.1-4.9-9.3-6.3-11.5-1.4-2.2-4.7-7.6-7.3-12-2.6-4.4-7.9-13.8-11.9-21-3.9-7.2-9.8-17.3-12.9-22.5-3.2-5.2-9-15.1-12.9-22-3.9-6.9-7.2-13-7.3-13.7-0.1-0.7 1.1-1.9 2.7-2.7 2.5-1.2 3.4-1.2 7.9 0.4zm801.9 251c0.4 0 0.3 0.6-0.3 1.3-0.5 0.6-1.3 2.3-1.7 3.7-0.5 1.4-5.1 10.1-10.3 19.4-5.2 9.2-10.5 18.5-11.6 20.5-1.2 2-5.4 9.2-9.4 16.1-4 6.9-8.2 14.2-9.4 16.2-1.1 2.1-5.3 9.3-9.2 16-3.9 6.8-9.9 17.3-13.3 23.3-3.5 6.1-8.1 14.1-10.3 18-2.2 3.9-7.5 12.7-11.7 19.7-4.2 7-8.5 14.3-9.6 16.2-1.1 1.9-5.5 9.7-9.9 17.3-4.3 7.6-12.5 22.1-18.3 32.3-5.7 10.2-12 21.2-14 24.5-2 3.3-6.7 11.4-10.6 18-3.8 6.6-8 13.6-9.2 15.5-1.2 1.9-5.6 9.6-9.7 17-4.1 7.4-8.4 15.1-9.5 17-1.1 1.9-4.7 8-8 13.5-3.3 5.5-8.4 14.3-11.3 19.5-3 5.2-7.9 13.8-11 19-3.1 5.2-9.7 16.6-14.6 25.3-4.9 8.6-10 17.7-11.4 20-1.4 2.4-5.4 9.4-9 15.6-3.6 6.1-7.5 12.9-8.6 14.9-1.2 2-5.3 9.1-9.2 15.7-3.9 6.6-12.2 20.9-18.4 31.8-6.2 11-12.4 21.8-13.8 24.2-1.4 2.4-4.6 7.9-7.1 12.2-2.6 4.3-10 17-16.4 28.3-6.5 11.3-12.7 21.7-13.9 23.2-1.2 1.5-2.4 2.7-2.9 2.7-0.4 0.1-1.7-0.9-3-2.1-1.2-1.3-3.5-4.2-5-6.5-1.5-2.4-2.7-4.6-2.7-5 0-0.5-4.8-9.1-10.6-19.3-5.9-10.2-13.9-24.1-17.8-30.8-3.9-6.8-8-13.9-9.1-15.8-1.1-1.8-7.8-13.6-14.9-26.1-7.1-12.6-14.4-25.3-16.3-28.3-1.9-3-6.3-10.5-9.7-16.5-3.5-6-10-17.5-14.5-25.5-4.6-8-9.1-15.6-10-17-1-1.4-2.3-4-2.9-5.7-0.9-2.5-0.9-4.1 0-6.5 0.6-1.8 2.4-5.3 3.9-7.8 1.5-2.5 5.7-9.7 9.4-16 3.7-6.3 12-20.7 18.5-32 6.5-11.3 16.1-27.8 21.2-36.8 5.1-9 10.2-17.9 11.3-19.7 1.1-1.9 4.2-7.2 6.9-11.7 2.7-4.6 6.8-11.7 9.1-15.8 2.3-4.1 7.4-12.9 11.3-19.5 3.9-6.6 8-13.6 9-15.5 1.1-1.9 3.6-6.6 5.7-10.5 2.1-3.9 4.3-7.7 5-8.5 0.7-0.8 2.2-3.3 3.3-5.5 1.1-2.2 3.1-5.4 6.9-10l23.9-0.7c19.1-0.6 27.4-1.4 41.4-3.7 9.6-1.6 22.5-4.1 28.5-5.6 6-1.4 17.1-4.6 24.5-7 7.4-2.4 20-7.3 28-10.9 8-3.5 19.2-8.7 25-11.5 5.8-2.9 15.2-7.8 20.9-10.9 5.7-3.1 16.9-10.1 25-15.4 8-5.3 19.6-13.6 25.6-18.3 6-4.7 15.7-12.4 21.5-17.2 5.8-4.7 22.4-20.6 37-35.4 14.6-14.8 26.9-26.9 27.3-26.9z"/>
	</g>
</svg>
