<svg version="1.2" xmlns="http://www.w3.org/2000/svg" viewBox="0 0 1280 720" width="1280" height="720">
	<title>eee</title>
	<defs>
		<linearGradient id="g1" x1="-233.8" y1="236.1" x2="1337.8" y2="236.1" gradientUnits="userSpaceOnUse">
			<stop offset="0" stop-color="#3ba55d"/>
			<stop offset=".2" stop-color="#3ba55d"/>
			<stop offset=".5" stop-color="#54ca7a"/>
			<stop offset=".8" stop-color="#51c193"/>
			<stop offset="1" stop-color="#51c193"/>
		</linearGradient>
	</defs>
	<style>
		.s0 { fill: url(#g1) } 
	</style>
	<path id="Path 0" class="s0" d="m-227.8-200.7c3.5 0.2 28.1 2.3 54.8 4.5 26.7 2.3 65.4 5.5 86 7.2 20.6 1.7 47.6 4 60 5 12.4 1.1 39.8 3.3 61 5 21.2 1.7 54.3 4.4 73.5 6 19.3 1.6 51.6 4.3 72 5.9 20.4 1.7 56.1 4.6 79.5 6.6 23.4 1.9 80.8 6.6 127.5 10.5 46.8 3.8 115.6 9.5 153 12.5 37.4 3 109 8.9 159 13 50 4.1 104.5 8.6 121 10 16.5 1.4 55 4.5 85.5 7 30.5 2.5 68.8 5.6 85 7 16.2 1.4 46.6 3.9 67.5 5.5 20.9 1.7 53.8 4.3 73 6 19.3 1.6 49 4 66 5.4 17 1.4 50.3 4.2 74 6.1 23.7 1.9 48.5 4 67.3 6l-24.2 36c-13.3 19.8-33.4 49-44.6 65-11.2 15.9-24.9 35.3-30.4 43-5.5 7.7-18.8 25.9-29.5 40.5-10.7 14.6-26.9 36.2-36 48-9 11.8-24.3 31.4-34 43.5-9.6 12.1-24.2 30.1-32.5 40-8.3 9.8-22.5 26.3-31.6 36.5-9 10.2-25 27.2-35.5 37.8-10.4 10.7-24 23.8-30 29.1-6 5.4-15.5 13.3-21 17.7-5.5 4.3-14.5 10.8-20 14.3-5.5 3.6-13.6 8.1-18 10.2-4.4 2-11.8 5-16.5 6.7-4.7 1.6-12.5 3.9-17.5 5-5 1.2-14.8 2.8-22 3.7-7.2 0.8-20.3 1.5-29.2 1.5-9 0-22-0.5-29-1.1-7.1-0.6-20.7-2.1-30.3-3.5-9.6-1.3-28.7-4.7-42.5-7.5-13.7-2.7-43.2-9.1-65.5-14-22.3-5-49-10.8-59.5-12.9-10.5-2.1-26.9-5.3-36.5-6.9-9.6-1.7-25.4-4.2-35-5.6-9.6-1.4-25.6-3.4-35.5-4.5-9.9-1-28.6-2.4-41.5-3.1-13.7-0.7-33.3-0.9-47-0.5-12.9 0.3-29.1 1.2-36 2.1-6.9 0.8-19 2.8-27 4.4-8 1.7-20.5 4.9-27.7 7.1-7.3 2.2-19.7 6.5-27.5 9.6-7.9 3.1-21.5 9.1-30.3 13.3-8.8 4.2-22.5 11.5-30.5 16-8 4.6-22.8 13.8-33 20.6-10.2 6.7-25.7 17.6-34.5 24.2-8.8 6.7-22.1 17.1-29.5 23.3-7.4 6.2-18.7 15.8-25 21.4-6.3 5.5-25 23.6-41.6 40.1-16.5 16.5-35.9 36.5-43 44.5-7.2 8-18.2 20.6-24.5 28-6.3 7.4-17.1 20.5-24 29-6.8 8.6-16.8 21.5-22.1 28.8-5.4 7.2-10.1 13.2-10.5 13.2-0.5 0-47.8-196.1-105.2-435.8-57.4-239.6-104.6-436.3-104.8-437-0.4-1.1 0.9-1.3 5.9-0.9z"/>
</svg>
